<mxfile host="app.diagrams.net" agent="Mozilla/5.0 (Windows NT 10.0; Win64; x64; rv:141.0) Gecko/20100101 Firefox/141.0" version="27.1.6">
  <diagram name="Página-1" id="gevImqlmNQo_UQR5T9l3">
    <mxGraphModel dx="856" dy="507" grid="1" gridSize="10" guides="1" tooltips="1" connect="1" arrows="1" fold="1" page="1" pageScale="1" pageWidth="827" pageHeight="1169" math="0" shadow="0">
      <root>
        <mxCell id="0" />
        <mxCell id="1" parent="0" />
        <mxCell id="a2jYf5SnCIQ0m0oPDZvo-22" style="edgeStyle=orthogonalEdgeStyle;rounded=0;orthogonalLoop=1;jettySize=auto;html=1;entryX=0.5;entryY=0;entryDx=0;entryDy=0;" edge="1" parent="1" source="a2jYf5SnCIQ0m0oPDZvo-1" target="a2jYf5SnCIQ0m0oPDZvo-2">
          <mxGeometry relative="1" as="geometry" />
        </mxCell>
        <mxCell id="a2jYf5SnCIQ0m0oPDZvo-1" value="&lt;font style=&quot;font-size: 20px;&quot;&gt;&lt;u&gt;&lt;b&gt;Inico do programa&lt;/b&gt;&lt;/u&gt;&lt;/font&gt;" style="rounded=0;whiteSpace=wrap;html=1;strokeColor=default;" vertex="1" parent="1">
          <mxGeometry x="354" y="80" width="120" height="60" as="geometry" />
        </mxCell>
        <mxCell id="a2jYf5SnCIQ0m0oPDZvo-23" style="edgeStyle=orthogonalEdgeStyle;rounded=0;orthogonalLoop=1;jettySize=auto;html=1;" edge="1" parent="1" source="a2jYf5SnCIQ0m0oPDZvo-2" target="a2jYf5SnCIQ0m0oPDZvo-3">
          <mxGeometry relative="1" as="geometry" />
        </mxCell>
        <mxCell id="a2jYf5SnCIQ0m0oPDZvo-24" style="edgeStyle=orthogonalEdgeStyle;rounded=0;orthogonalLoop=1;jettySize=auto;html=1;" edge="1" parent="1" source="a2jYf5SnCIQ0m0oPDZvo-2" target="a2jYf5SnCIQ0m0oPDZvo-4">
          <mxGeometry relative="1" as="geometry" />
        </mxCell>
        <mxCell id="a2jYf5SnCIQ0m0oPDZvo-2" value="&lt;font style=&quot;font-size: 16px;&quot;&gt;&lt;u&gt;&lt;b&gt;num_digitado&lt;/b&gt;&lt;/u&gt;&lt;/font&gt;" style="rounded=1;whiteSpace=wrap;html=1;" vertex="1" parent="1">
          <mxGeometry x="354" y="220" width="120" height="60" as="geometry" />
        </mxCell>
        <mxCell id="a2jYf5SnCIQ0m0oPDZvo-3" value="&lt;div&gt;&lt;font style=&quot;font-size: 10px;&quot;&gt;Armazenamento da entrada do numero&lt;/font&gt;&lt;/div&gt;&lt;div&gt;&lt;font style=&quot;font-size: 10px;&quot;&gt;scanf(&quot;%d&quot;);&lt;/font&gt;&lt;/div&gt;" style="shape=cylinder3;whiteSpace=wrap;html=1;boundedLbl=1;backgroundOutline=1;size=15;" vertex="1" parent="1">
          <mxGeometry x="510" y="270" width="90" height="80" as="geometry" />
        </mxCell>
        <mxCell id="a2jYf5SnCIQ0m0oPDZvo-12" style="edgeStyle=orthogonalEdgeStyle;rounded=0;orthogonalLoop=1;jettySize=auto;html=1;exitX=0;exitY=0.5;exitDx=0;exitDy=0;" edge="1" parent="1" source="a2jYf5SnCIQ0m0oPDZvo-16" target="a2jYf5SnCIQ0m0oPDZvo-9">
          <mxGeometry relative="1" as="geometry" />
        </mxCell>
        <mxCell id="a2jYf5SnCIQ0m0oPDZvo-13" style="edgeStyle=orthogonalEdgeStyle;rounded=0;orthogonalLoop=1;jettySize=auto;html=1;exitX=1;exitY=0.5;exitDx=0;exitDy=0;" edge="1" parent="1" source="a2jYf5SnCIQ0m0oPDZvo-14" target="a2jYf5SnCIQ0m0oPDZvo-8">
          <mxGeometry relative="1" as="geometry" />
        </mxCell>
        <mxCell id="a2jYf5SnCIQ0m0oPDZvo-4" value="&lt;b&gt;If-else&lt;/b&gt;" style="rhombus;whiteSpace=wrap;html=1;" vertex="1" parent="1">
          <mxGeometry x="374" y="360" width="80" height="80" as="geometry" />
        </mxCell>
        <mxCell id="a2jYf5SnCIQ0m0oPDZvo-7" style="edgeStyle=orthogonalEdgeStyle;rounded=0;orthogonalLoop=1;jettySize=auto;html=1;entryX=0;entryY=0.5;entryDx=0;entryDy=0;" edge="1" parent="1" source="a2jYf5SnCIQ0m0oPDZvo-5" target="a2jYf5SnCIQ0m0oPDZvo-2">
          <mxGeometry relative="1" as="geometry" />
        </mxCell>
        <mxCell id="a2jYf5SnCIQ0m0oPDZvo-5" value="&lt;div&gt;Entrada do número&lt;/div&gt;&lt;div&gt;printf();&lt;/div&gt;" style="text;html=1;align=center;verticalAlign=middle;whiteSpace=wrap;rounded=0;" vertex="1" parent="1">
          <mxGeometry x="170" y="235" width="120" height="30" as="geometry" />
        </mxCell>
        <mxCell id="a2jYf5SnCIQ0m0oPDZvo-25" style="edgeStyle=orthogonalEdgeStyle;rounded=0;orthogonalLoop=1;jettySize=auto;html=1;" edge="1" parent="1" source="a2jYf5SnCIQ0m0oPDZvo-8" target="a2jYf5SnCIQ0m0oPDZvo-21">
          <mxGeometry relative="1" as="geometry">
            <Array as="points">
              <mxPoint x="636" y="740" />
            </Array>
          </mxGeometry>
        </mxCell>
        <mxCell id="a2jYf5SnCIQ0m0oPDZvo-8" value="printf(&quot;O numero %d e par &quot;, num-digitado);" style="rounded=0;whiteSpace=wrap;html=1;" vertex="1" parent="1">
          <mxGeometry x="512" y="481" width="248" height="60" as="geometry" />
        </mxCell>
        <mxCell id="a2jYf5SnCIQ0m0oPDZvo-28" style="edgeStyle=orthogonalEdgeStyle;rounded=0;orthogonalLoop=1;jettySize=auto;html=1;entryX=0;entryY=0.5;entryDx=0;entryDy=0;" edge="1" parent="1" source="a2jYf5SnCIQ0m0oPDZvo-9" target="a2jYf5SnCIQ0m0oPDZvo-21">
          <mxGeometry relative="1" as="geometry">
            <Array as="points">
              <mxPoint x="200" y="740" />
            </Array>
          </mxGeometry>
        </mxCell>
        <mxCell id="a2jYf5SnCIQ0m0oPDZvo-9" value="printf(&quot;O numero %d e impar &quot;, num-digitado);" style="rounded=0;whiteSpace=wrap;html=1;" vertex="1" parent="1">
          <mxGeometry x="80" y="481" width="250" height="60" as="geometry" />
        </mxCell>
        <mxCell id="a2jYf5SnCIQ0m0oPDZvo-10" value="&lt;b&gt;( num_digitado % 2 == 0 )&lt;/b&gt;" style="text;html=1;align=center;verticalAlign=middle;whiteSpace=wrap;rounded=0;" vertex="1" parent="1">
          <mxGeometry x="110" y="350" width="170" height="30" as="geometry" />
        </mxCell>
        <mxCell id="a2jYf5SnCIQ0m0oPDZvo-11" style="edgeStyle=orthogonalEdgeStyle;rounded=0;orthogonalLoop=1;jettySize=auto;html=1;entryX=0.35;entryY=0.213;entryDx=0;entryDy=0;entryPerimeter=0;" edge="1" parent="1" source="a2jYf5SnCIQ0m0oPDZvo-10" target="a2jYf5SnCIQ0m0oPDZvo-4">
          <mxGeometry relative="1" as="geometry" />
        </mxCell>
        <mxCell id="a2jYf5SnCIQ0m0oPDZvo-15" value="" style="edgeStyle=orthogonalEdgeStyle;rounded=0;orthogonalLoop=1;jettySize=auto;html=1;exitX=1;exitY=0.5;exitDx=0;exitDy=0;" edge="1" parent="1" source="a2jYf5SnCIQ0m0oPDZvo-4" target="a2jYf5SnCIQ0m0oPDZvo-14">
          <mxGeometry relative="1" as="geometry">
            <mxPoint x="454" y="400" as="sourcePoint" />
            <mxPoint x="636" y="481" as="targetPoint" />
          </mxGeometry>
        </mxCell>
        <mxCell id="a2jYf5SnCIQ0m0oPDZvo-14" value="&lt;b&gt;( If )&lt;/b&gt;" style="text;html=1;align=center;verticalAlign=middle;whiteSpace=wrap;rounded=0;" vertex="1" parent="1">
          <mxGeometry x="525" y="385" width="60" height="30" as="geometry" />
        </mxCell>
        <mxCell id="a2jYf5SnCIQ0m0oPDZvo-17" value="" style="edgeStyle=orthogonalEdgeStyle;rounded=0;orthogonalLoop=1;jettySize=auto;html=1;exitX=0;exitY=0.5;exitDx=0;exitDy=0;" edge="1" parent="1" source="a2jYf5SnCIQ0m0oPDZvo-4" target="a2jYf5SnCIQ0m0oPDZvo-16">
          <mxGeometry relative="1" as="geometry">
            <mxPoint x="374" y="400" as="sourcePoint" />
            <mxPoint x="205" y="481" as="targetPoint" />
          </mxGeometry>
        </mxCell>
        <mxCell id="a2jYf5SnCIQ0m0oPDZvo-16" value="&lt;b&gt;( else )&lt;/b&gt;" style="text;html=1;align=center;verticalAlign=middle;whiteSpace=wrap;rounded=0;" vertex="1" parent="1">
          <mxGeometry x="250" y="385" width="60" height="30" as="geometry" />
        </mxCell>
        <mxCell id="a2jYf5SnCIQ0m0oPDZvo-19" style="edgeStyle=orthogonalEdgeStyle;rounded=0;orthogonalLoop=1;jettySize=auto;html=1;entryX=0;entryY=0.25;entryDx=0;entryDy=0;" edge="1" parent="1" source="a2jYf5SnCIQ0m0oPDZvo-18" target="a2jYf5SnCIQ0m0oPDZvo-8">
          <mxGeometry relative="1" as="geometry" />
        </mxCell>
        <mxCell id="a2jYf5SnCIQ0m0oPDZvo-18" value="Saidas" style="text;html=1;align=center;verticalAlign=middle;whiteSpace=wrap;rounded=0;" vertex="1" parent="1">
          <mxGeometry x="384" y="490" width="60" height="30" as="geometry" />
        </mxCell>
        <mxCell id="a2jYf5SnCIQ0m0oPDZvo-20" style="edgeStyle=orthogonalEdgeStyle;rounded=0;orthogonalLoop=1;jettySize=auto;html=1;entryX=0.984;entryY=0.383;entryDx=0;entryDy=0;entryPerimeter=0;" edge="1" parent="1" source="a2jYf5SnCIQ0m0oPDZvo-18" target="a2jYf5SnCIQ0m0oPDZvo-9">
          <mxGeometry relative="1" as="geometry" />
        </mxCell>
        <mxCell id="a2jYf5SnCIQ0m0oPDZvo-21" value="&lt;u&gt;&lt;b&gt;&lt;font style=&quot;font-size: 20px;&quot;&gt;Fim do Programa&lt;/font&gt;&lt;/b&gt;&lt;/u&gt;" style="rounded=0;whiteSpace=wrap;html=1;" vertex="1" parent="1">
          <mxGeometry x="354" y="710" width="120" height="60" as="geometry" />
        </mxCell>
      </root>
    </mxGraphModel>
  </diagram>
</mxfile>
